<?xml version="1.0" encoding="UTF-8"?>
<svg version="1.1" viewBox="0 0 1024 1024" width="1024" height="1024" xmlns="http://www.w3.org/2000/svg">
<path transform="translate(0)" d="m0 0h1024v1024h-1024z" fill="#FAFAFA"/>
<path transform="translate(509,61)" d="m0 0 5 1 35 16 65 29 40 17 28 11 34 13 36 12 25 7 31 7 26 4 35 3 19 1v229l-2 31-4 33-6 36-6 28-9 35-8 27-8 22-11 27-17 36-14 25-15 24-15 22-10 13-13 17-11 12-7 8-13 14-8 7-9 9-8 7-15 13-14 11-16 12-36 24-17 10-23 13-29 15-17 8-12 7-6 1-46-23-22-12-18-10-32-20-17-12-11-8-12-9-17-14-11-9-15-15-2-1v-2l-4-2-14-15-12-13-9-11-8-10-15-20-16-24-9-15-12-21-15-29-13-31-11-31-11-40-8-38-6-35-5-40-2-26v-240l34-2 32-4 36-8 26-7 46-15 34-13 31-13 28-12 36-16 26-12 25-11z" fill="#ACA8AC"/>
<path transform="translate(494,222)" d="m0 0h35l11 3 6 4 3 4 1 6 1 38 12 2 21 7 16 8 21 14 11 9 10 9 16 16 10 13 9 14 6 12 6 18 4 24 1 3 4 2 8 9 3 12v28l-3 9-7 9-2 10-4 49-1 30v29l2 19 5 16 9 19-1 5-10 13-10 14-9 11-4 5h-2v2h-2v2h-2l-2 4-24 22-13 10-11 8-16 12-21 14-10 3-13 10-11 9-10 8-12 9-7 5-6 1-14-7-19-10-15-8-19-12-9-8-5 1-10-4-16-9-19-13-13-11-11-9-13-13-7-8-11-14-10-16-8-16-1-9 8-19 3-9 1-6 1-65-4-2-2-5-2-20-2-34-1-7-8-7-1-2v-43l4-6 7-8 7-31 6-18 8-16 9-16 13-17 14-15 10-9 17-12 24-14 15-7 18-6 11-2v-14l1-19 3-8 8-6z" fill="#020203"/>
<path transform="translate(509,61)" d="m0 0 5 1 35 16 65 29 40 17 28 11 34 13 36 12 25 7 31 7 26 4 35 3 19 1v229l-2 31-4 33-6 36-6 28-9 35-8 27-8 22-11 27-17 36-14 25-15 24-15 22-10 13-13 17-11 12-7 8-13 14-8 7-9 9-8 7-15 13-14 11-16 12-36 24-17 10-23 13-29 15-17 8-12 7-6 1-46-23-22-12-18-10-32-20-17-12-11-8-12-9-17-14-11-9-15-15-2-1v-2l-4-2-14-15-12-13-9-11-8-10-15-20-16-24-9-15-12-21-15-29-13-31-11-31-11-40-8-38-6-35-5-40-2-26v-240l34-2 32-4 36-8 26-7 46-15 34-13 31-13 28-12 36-16 26-12 25-11zm0 58-19 9-41 18-36 15-30 13-37 15-29 11-36 12-26 8-32 8-39 7-1 1v104l1 47 3 50 3 27 6 40 8 39 8 30 11 33 12 31 10 22 12 22 11 19 13 20 13 19 11 14 11 13 7 8 9 10 17 17h2v2l8 7 15 13 12 9 18 13 21 14 25 15 18 10 23 12 17 8 6-1 16-8 23-12 18-10 17-10 20-13 14-10 19-14 11-9 14-12 12-11 18-18 7-8 11-13 11-14 13-18 10-15 9-15 13-24 11-23 13-32 12-36 8-27 8-32 7-38 4-28 3-28 3-57 1-65v-24l-1-44-1-1-28-4-29-6-30-8-38-12-31-12-42-17-58-25-36-16-14-7-18-8z" fill="#ACA8AC"/>
<path transform="translate(497,239)" d="m0 0h34l-2 13-1 106-5-1v-101l1-3h-18l-17-1 3 4 4 12 2 15 1 50v26l-5 2-3 12h7l3 5v21l-4 3-4 2 8-3 1-1v-22l-4-8v-2l16-5h10l15 7-2 6-3 5-3 16v5l5 2-1-9 2-15 2-3h2l-1 27 15 1 6 2-5 4-4 3-3 5-12 8-2 10h2l1 2 1-1 31 1 24 2 53 6 37 6-1-8-7-3-33-6-46-6-46-4-2-4 2-2 9-1 34 3 39 5 37 6 15 4 10 7-1 34-4 5h-3l-2 6-5 13-1 12-1 37-4 4h-10l-1-23-3-3-7-1h-40l-20 2-25 5-21 6-13 5-9 6-1 4v254l-4 1v-246-4l-3 8-1 41v206l-5-1-12-7v-244l-2-10-5-5-8-4-26-7-26-5-15-2-16-1h-28l-13 1-3 1-2 14 2-12 1-1h6l2 3h3l1 23 4 6 7 7 14 11 16 9 10 4v5l-11-3-19-9-11-8-5-4v-2l-3-1 1 2 10 9 13 8 14 6 11 3 1 22 1 86 3 22 6 24 3 18-1 2-5-2-18-12-17-12-13-11-13-12-8-8-11-14-10-15-10-19 8-22 3-13 1-29v-48l1-1h5l-1-2v-28l12-6 5-1h34l28 3 29 5 24 6 15 6 7 6 6 10 1 6 3-3 6-10 7-8 12-6 24-7 29-6 16-2 15-1h37l7 5 3 5 2 18 4 1v-39l-6 5-5 2-7 1-46 2-23 3-29 6-23 7-9 2v2l-8 7-7 9-3-1-7-11-8-5-19-6-21-5-28-5-32-3-44-1-9-2-6-5-4-17-6-10-1-4v-27l2-4h2l1 18v15l6-4 6-2 29-6 48-7 66-7 11-1v5h4l-1-4-2-23-4-9-8-7-10-6-3-1 1 5 3 4-4 1h-8v-43l3-21 4-12 9-10 9-6v24l-2 17-1 37 3-1v-11l-1-20 3-28v-35l-1-37v-31l3-3z" fill="#F2F2F2"/>
<path transform="translate(509,61)" d="m0 0 5 1 35 16 65 29 40 17 28 11 34 13 36 12 25 7 31 7 26 4 35 3 19 1v229l-2 31-4 33-6 36-6 28-9 35-8 27-8 22-11 27-17 36-14 25-15 24-15 22-10 13-13 17-11 12-7 8-13 14-8 7-9 9-8 7-15 13-14 11-16 12-36 24-17 10-23 13-29 15-17 8-12 7-6 1-46-23-22-12-18-10-32-20-17-12-11-8-12-9-17-14-11-9-15-15-2-1v-2l-4-2-14-15-12-13-9-11-8-10-15-20-16-24-9-15-12-21-15-29-13-31-11-31-11-40-8-38-6-35-5-40-2-26v-240l34-2 32-4 36-8 26-7 46-15 34-13 31-13 28-12 36-16 26-12 25-11zm-1 18-29 13-35 16-41 18-28 12-29 12-26 10-35 12-30 9-33 8-27 5-43 5v203l2 33 5 43 6 38 7 34 6 24 9 30 10 28 8 18 12 25 13 24 14 23 12 18 10 14 10 13 9 11 12 13 7 8 11 12 10 10 8 7 12 11 25 20 13 9 23 16 28 17 27 15 48 24 5-1 38-19 22-12 26-15 22-14 14-10 11-8 13-10 11-9 14-12 12-11 8-7v-2l4-2 7-8 11-11 9-11 11-13 12-16 14-21 14-23 12-21 10-19 11-25 12-31 11-33 8-29 8-36 7-43 4-33 2-44 1-35v-157l-1-1-36-3-32-5-31-7-45-13-27-10-12-5-36-14-30-13-46-20-28-13-20-9-15-7z" fill="#020203"/>
<path transform="translate(619,520)" d="m0 0h37l7 5 3 5v17h-1l-2-15-3-3-7-1h-40l-20 2-25 5-21 6-13 5-9 6-1 4v254l-4 1v-246-4l-3 8-1 41v206l-5-1-12-7v-244l-2-10-5-5-8-4-26-7-26-5-15-2-16-1h-28l-13 1-3 1-2 14 2-12 1-1h6l2 3h3l1 23 4 6 7 7 14 11 16 9 10 4v5l-11-3-19-9-11-8-5-4v-2l-3-1 1 2 10 9 13 8 14 6 11 3 1 22 1 86 3 22 6 24 3 18-1 2-5-2-18-12-17-12-13-11-13-12-8-8-11-14-10-15-10-19 8-22 3-13 1-29v-48l1-1h5l-1-2v-28l12-6 5-1h34l28 3 29 5 24 6 15 6 7 6 6 10 1 6 3-3 6-10 7-8 12-6 24-7 29-6 16-2z" fill="#F2F2F2"/>
<path transform="translate(457,293)" d="m0 0h12l4 4v9l-4 20-8 27-3 15-1 11-1 42-4 1-25 2-32 5-23 5-30 8-6 1v-16l3-15 6-18 8-18 10-16 10-13 7-8h2v-2h2v-2h2v-2l11-9 15-11 14-8 23-10z" fill="#F8F8F8"/>
<path transform="translate(652,529)" d="m0 0 7 1 2 2 1 4v21l-10 15-6 8-7 7-14 9-15 6-13 2-1 68-2 33-3 24-5 25v3l7-7 4-7 5-29 3-31 1-21 1-53 15-1 8-4 13-10 11-11 6-9h7v24l4 22 6 19 7 17 5 8-1 5-10 13-12 16-25 25-11 9-15 12-12 9-16 13-9 7-4 1-1-3 7-34 6-40 2-27 1-73 16-4 12-5 6-4 8-10 6-7h2l2-4 4-7 1-2v-23l4 1 2 7v12l-3 10-7 10-9 9 8-6 9-12 3-8v-18z" fill="#F2F1F2"/>
<path transform="translate(510,113)" d="m0 0 5 1 22 10 15 7 37 17 12 5 30 13 20 8 14 6 41 16 36 12 27 8 30 7 30 5 15 1 1 40v48l-1 51-2 42-4 43-6 41-8 39-12 43-12 36-10 25-11 25-15 29-8 13-10 16-12 17-14 18-12 14-9 10-1 2h-2l-2 4-14 14h-2v2l-8 7-10 9-11 9-15 12-14 10-15 10-16 10-24 14-26 14-17 9-11 5-6-2-25-12-28-15-20-12-22-14-14-10-19-14-22-18v-2l-4-2-17-16-9-9-6-7v-2h-2l-8-10v-2h-2l-11-14-12-16-12-18-10-16-14-24-16-32-12-31-9-25-8-28-6-24-8-41-6-45-3-36-2-49v-134l29-4 32-7 28-8 38-12 19-7 41-16 61-26 19-8 30-13 20-9zm-1 6-19 9-41 18-36 15-30 13-37 15-29 11-36 12-26 8-32 8-39 7-1 1v104l1 47 3 50 3 27 6 40 8 39 8 30 11 33 12 31 10 22 12 22 11 19 13 20 13 19 11 14 11 13 7 8 9 10 17 17h2v2l8 7 15 13 12 9 18 13 21 14 25 15 18 10 23 12 17 8 6-1 16-8 23-12 18-10 17-10 20-13 14-10 19-14 11-9 14-12 12-11 18-18 7-8 11-13 11-14 13-18 10-15 9-15 13-24 11-23 13-32 12-36 8-27 8-32 7-38 4-28 3-28 3-57 1-65v-24l-1-44-1-1-28-4-29-6-30-8-38-12-31-12-42-17-58-25-36-16-14-7-18-8z" fill="#020203"/>
<path transform="translate(433,600)" d="m0 0 20 4 29 4 1 108v83l-6-2-15-10-14-12-9-9-5-10-1-7-1-17v-113z" fill="#F8F8F8"/>
<path transform="translate(549,474)" d="m0 0h68l45 4 19 2-3 9-6 11-8 7-8 4-5 1-46 3-25 3-26 5-25 7-10 4h-2l1-8 1-47-66 1-32 1-25 2-48 7-10 1 5 8 9 6 5 1 21 1 10 2 25 3 19 3 16 3 7 2 8 2-1 2-19-4-25-4-39-5-10-1-16-1-9-4-5-4-7-10-1-2 16-3 26-4 32-4 36-2z" fill="#020203"/>
<path transform="translate(656,596)" d="m0 0 2 2 3 18 5 19 8 20 4 8-1 6-11 14-9 11-11 12-12 11-11 9-10 8-4 3h-2l1-9 3-19 4-46 1-40 20-11 10-8z" fill="#020203"/>
<path transform="translate(358,600)" d="m0 0 4 2 8 7 13 8 14 8 1 7 3 68 2 26 2 12-5-2-10-7v-2l-4-2-18-18-9-11-15-22-1-5 5-10 6-19 3-20z" fill="#F8F7F8"/>
<path transform="translate(497,239)" d="m0 0h34l-2 13-1 106-5-1v-101l1-3h-18l-17-1 3 4 4 12 2 15 1 50v26l-5 2-3 12h7l3 5v21l-4 3-6 2h-5l-2-28 3-29v-35l-1-37v-31l3-3z" fill="#F5F4F5"/>
<path transform="translate(534,446)" d="m0 0 41 2 51 5 51 7 7 2v11l-15-1-55-5-56-4-26-3-3-6-1-7z" fill="#020203"/>
<path transform="translate(493,254)" d="m0 0 28 2-2 8-2 11-1 24 1 42 1 15-14 3h-3l-1-55-2-28-4-16z" fill="#F4F4F4"/>
<path transform="translate(355,567)" d="m0 0 3 4 8 11 6 7 11 9 11 7 10 4 4 1 1 39 2 34 4 38 5 25 2 9h-3l-15-11-2-1v-2l-5-2-14-12-11-10-7-8-10-12-10-15-6-10 2-4 6-14 5-21 1-7 1-37h2l7 9 8 8 15 10 13 6 2 32 2 42 3 31 4 18h2v2l6 3-6-31-4-33-2-27-1-23v-23l-5-1-14-7-10-8-5-5-9-10-7-11zm3 33-1 20-3 20-7 21-4 8 1 5 15 22 12 14 17 17h2v2l13 9h2l-3-22-2-34-2-50-1-7-14-8-14-9-9-8z" fill="#020203"/>
<path transform="translate(484,329)" d="m0 0h1v24l-2 17-1 37-8 1h-9l4 8 3 4-4 1h-8v-43l3-21 4-12 9-10z" fill="#F6F6F6"/>
<path transform="translate(469,422)" d="m0 0h9l4 3v2l-68 13-50 10-36 9-1-1v-8l10-4 31-9 28-6 25-4z" fill="#F1F0F1"/>
<path transform="translate(483,429)" d="m0 0 4 1 3 7v6l-15 2-70 8-36 6-34 7h-6l1-5 14-4 35-8 56-11 42-8z" fill="#F1F1F1"/>
<path transform="translate(489,251)" d="m0 0 35 2-1 104 3 1-4 1-3 1v3l-18 5h-3l5 10v22l-6 4-9 1 3-2 9-4v-21l-2-4-7-1 1-6 2-7 4-1v-26l-1-50-3-19-3-10-3-1zm4 3 2 9 3 13 2 28 1 55 14-2 3-1-1-15-1-45 1-21 2-11 2-8z" fill="#040405"/>
<path transform="translate(482,447)" d="m0 0h9v7l-36 3-64 8-36 6-20 4h-5l-1-5 5-2 41-8 36-5 50-6z" fill="#EDECED"/>
<path transform="translate(522,563)" d="m0 0h1l1 9v238l-4 1v-246z" fill="#FAFAFA"/>
<path transform="translate(366,536)" d="m0 0h3l1 23 4 6 7 7 14 11 16 9 10 4v5l-11-3-19-9-11-8-5-4v-2l-3-1v-2l-4-1-4-6-1-3v-24l2 2 3-3z" fill="#D8D7D8"/>
<path transform="translate(517,402)" d="m0 0 4 1 7 2 13 4 12 1-1 2-9 4-9 7-5 10-2 10h9l-2 2-22 1-7 1h-3l1-3 4-1h16l2-11 6-10 4-5 5-5-10-2-7-2h-10l-21 5 5 5 6 10 3 8v4h-5l-1-1-2-10-7-11-9-6 3-2 21-5z" fill="#020203"/>
<path transform="translate(670,510)" d="m0 0h2l1 2-1 37-5-1-2-18-4-6-5-3h-37l-24 2-27 5-20 5-15 5-3-1 9-4 21-6 30-6 18-2 46-2 10-2 4-2z" fill="#020203"/>
<path transform="translate(522,465)" d="m0 0h34l11 1v2l-13 1-29 1-27 2-51 3h-12v-1l25-4 39-4z" fill="#020203"/>
<path transform="translate(445,310)" d="m0 0 5 1-4 4-21 10-14 10-15 13-12 13-10 13-9 14-9 17-5 15-2 4 1-9 5-15 8-16 10-14 10-13 14-15 16-13 15-11z" fill="#020203"/>
<path transform="translate(333,516)" d="m0 0 4 1 5 3 1 36h-6l-2-10-2-15z" fill="#F2F1F2"/>
<path transform="translate(553,410)" d="m0 0 3 1-4 3-3 5-12 8-2 10h2l1 5-1 1h-10l1-10 5-10 8-7 8-4z" fill="#E7E6E7"/>
<path transform="translate(497,276)" d="m0 0h2l2 28v55l2 1-8 4-2 2v-5l5-2v-26z" fill="#020203"/>
<path transform="translate(462,473)" d="m0 0h16v1l9 1v1l-46 1-13 1h-19v-1l26-3h12z" fill="#D4D2D4"/>
<path transform="translate(370,572)" d="m0 0h2l3 3v2l4 2 9 7 17 9 12 5-4 1-15-6-12-7-13-11z" fill="#030304"/>
<path transform="translate(689,445)" d="m0 0h2l1 4-1 30-3-1z" fill="#020203"/>
<path transform="translate(433,474)" d="m0 0 8 2v1l-13 1h-19v-1z" fill="#A8A4A8"/>
<path transform="translate(501,360)" d="m0 0h10v2l-13 3v-4z" fill="#D8D6D8"/>
<path transform="translate(527,361)" d="m0 0 12 2 3 2v3l-15-5z" fill="#D3D1D3"/>
<path transform="translate(530,444)" d="m0 0 5 1-1 2-22-1v-1z" fill="#ACA8AC"/>
<path transform="translate(646,566)" d="m0 0v3l-5 6-7 6-2-1z" fill="#070708"/>
</svg>
